<svg width="202" height="24" viewBox="0 0 202 24" fill="none" xmlns="http://www.w3.org/2000/svg">
<path d="M12.376 23.384C10.648 23.384 9.03733 23.1067 7.544 22.552C6.072 21.976 4.792 21.1653 3.704 20.12C2.616 19.0747 1.76267 17.848 1.144 16.44C0.546667 15.032 0.248 13.4853 0.248 11.8C0.248 10.1147 0.546667 8.568 1.144 7.16C1.76267 5.752 2.616 4.52533 3.704 3.48C4.81333 2.43467 6.104 1.63467 7.576 1.08C9.048 0.503999 10.6587 0.216 12.408 0.216C14.3493 0.216 16.0987 0.557333 17.656 1.24C19.2347 1.90133 20.5573 2.88267 21.624 4.184L18.296 7.256C17.528 6.38133 16.6747 5.73067 15.736 5.304C14.7973 4.856 13.7733 4.632 12.664 4.632C11.6187 4.632 10.6587 4.80267 9.784 5.144C8.90933 5.48533 8.152 5.976 7.512 6.616C6.872 7.256 6.37067 8.01333 6.008 8.888C5.66667 9.76267 5.496 10.7333 5.496 11.8C5.496 12.8667 5.66667 13.8373 6.008 14.712C6.37067 15.5867 6.872 16.344 7.512 16.984C8.152 17.624 8.90933 18.1147 9.784 18.456C10.6587 18.7973 11.6187 18.968 12.664 18.968C13.7733 18.968 14.7973 18.7547 15.736 18.328C16.6747 17.88 17.528 17.208 18.296 16.312L21.624 19.384C20.5573 20.6853 19.2347 21.6773 17.656 22.36C16.0987 23.0427 14.3387 23.384 12.376 23.384Z" fill="#6EDF5D"/>
<path d="M33.651 23.256C31.8163 23.256 30.1843 22.872 28.755 22.104C27.347 21.336 26.227 20.2907 25.395 18.968C24.5843 17.624 24.179 16.0987 24.179 14.392C24.179 12.664 24.5843 11.1387 25.395 9.816C26.227 8.472 27.347 7.42667 28.755 6.68C30.1843 5.912 31.8163 5.528 33.651 5.528C35.4643 5.528 37.0857 5.912 38.515 6.68C39.9443 7.42667 41.0643 8.46133 41.875 9.784C42.6857 11.1067 43.091 12.6427 43.091 14.392C43.091 16.0987 42.6857 17.624 41.875 18.968C41.0643 20.2907 39.9443 21.336 38.515 22.104C37.0857 22.872 35.4643 23.256 33.651 23.256ZM33.651 19.16C34.483 19.16 35.2297 18.968 35.891 18.584C36.5523 18.2 37.075 17.656 37.459 16.952C37.843 16.2267 38.035 15.3733 38.035 14.392C38.035 13.3893 37.843 12.536 37.459 11.832C37.075 11.128 36.5523 10.584 35.891 10.2C35.2297 9.816 34.483 9.624 33.651 9.624C32.819 9.624 32.0723 9.816 31.411 10.2C30.7497 10.584 30.2163 11.128 29.811 11.832C29.427 12.536 29.235 13.3893 29.235 14.392C29.235 15.3733 29.427 16.2267 29.811 16.952C30.2163 17.656 30.7497 18.2 31.411 18.584C32.0723 18.968 32.819 19.16 33.651 19.16ZM47.7078 23V5.784H52.4758V10.648L51.8038 9.24C52.3158 8.024 53.1371 7.10667 54.2678 6.488C55.3984 5.848 56.7744 5.528 58.3958 5.528V10.136C58.1824 10.1147 57.9904 10.104 57.8198 10.104C57.6491 10.0827 57.4678 10.072 57.2758 10.072C55.9104 10.072 54.8011 10.4667 53.9478 11.256C53.1158 12.024 52.6998 13.2293 52.6998 14.872V23H47.7078ZM71.063 23.256C69.1003 23.256 67.3723 22.872 65.879 22.104C64.407 21.336 63.2657 20.2907 62.455 18.968C61.6443 17.624 61.239 16.0987 61.239 14.392C61.239 12.664 61.6337 11.1387 62.423 9.816C63.2337 8.472 64.3323 7.42667 65.719 6.68C67.1057 5.912 68.6737 5.528 70.423 5.528C72.1083 5.528 73.623 5.89067 74.967 6.616C76.3323 7.32 77.4097 8.344 78.199 9.688C78.9883 11.0107 79.383 12.6 79.383 14.456C79.383 14.648 79.3723 14.872 79.351 15.128C79.3297 15.3627 79.3083 15.5867 79.287 15.8H65.303V12.888H76.663L74.743 13.752C74.743 12.856 74.5617 12.0773 74.199 11.416C73.8363 10.7547 73.335 10.2427 72.695 9.88C72.055 9.496 71.3083 9.304 70.455 9.304C69.6017 9.304 68.8443 9.496 68.183 9.88C67.543 10.2427 67.0417 10.7653 66.679 11.448C66.3163 12.1093 66.135 12.8987 66.135 13.816V14.584C66.135 15.5227 66.3377 16.3547 66.743 17.08C67.1697 17.784 67.7563 18.328 68.503 18.712C69.271 19.0747 70.167 19.256 71.191 19.256C72.1083 19.256 72.9083 19.1173 73.591 18.84C74.295 18.5627 74.935 18.1467 75.511 17.592L78.167 20.472C77.3777 21.368 76.3857 22.0613 75.191 22.552C73.9963 23.0213 72.6203 23.256 71.063 23.256ZM84.3385 23V0.599998H88.6265L98.1625 16.408H95.8905L105.267 0.599998H109.523L109.587 23H104.723L104.691 8.056H105.587L98.0985 20.632H95.7625L88.1145 8.056H89.2025V23H84.3385ZM126.389 23V19.64L126.069 18.904V12.888C126.069 11.8213 125.738 10.9893 125.077 10.392C124.437 9.79467 123.445 9.496 122.101 9.496C121.184 9.496 120.277 9.64533 119.381 9.944C118.506 10.2213 117.76 10.6053 117.141 11.096L115.349 7.608C116.288 6.94667 117.418 6.43467 118.741 6.072C120.064 5.70933 121.408 5.528 122.773 5.528C125.397 5.528 127.434 6.14667 128.885 7.384C130.336 8.62133 131.061 10.552 131.061 13.176V23H126.389ZM121.141 23.256C119.797 23.256 118.645 23.032 117.685 22.584C116.725 22.1147 115.989 21.4853 115.477 20.696C114.965 19.9067 114.709 19.0213 114.709 18.04C114.709 17.016 114.954 16.12 115.445 15.352C115.957 14.584 116.757 13.9867 117.845 13.56C118.933 13.112 120.352 12.888 122.101 12.888H126.677V15.8H122.645C121.472 15.8 120.661 15.992 120.213 16.376C119.786 16.76 119.573 17.24 119.573 17.816C119.573 18.456 119.818 18.968 120.309 19.352C120.821 19.7147 121.514 19.896 122.389 19.896C123.221 19.896 123.968 19.704 124.629 19.32C125.29 18.9147 125.77 18.328 126.069 17.56L126.837 19.864C126.474 20.9733 125.813 21.816 124.853 22.392C123.893 22.968 122.656 23.256 121.141 23.256ZM142.651 23.256C141.179 23.256 139.76 23.0853 138.395 22.744C137.051 22.3813 135.984 21.9333 135.195 21.4L136.859 17.816C137.648 18.3067 138.576 18.712 139.643 19.032C140.731 19.3307 141.798 19.48 142.843 19.48C143.995 19.48 144.806 19.3413 145.275 19.064C145.766 18.7867 146.011 18.4027 146.011 17.912C146.011 17.5067 145.819 17.208 145.435 17.016C145.072 16.8027 144.582 16.6427 143.963 16.536C143.344 16.4293 142.662 16.3227 141.915 16.216C141.19 16.1093 140.454 15.9707 139.707 15.8C138.96 15.608 138.278 15.3307 137.659 14.968C137.04 14.6053 136.539 14.1147 136.155 13.496C135.792 12.8773 135.611 12.0773 135.611 11.096C135.611 10.008 135.92 9.048 136.539 8.216C137.179 7.384 138.096 6.73333 139.291 6.264C140.486 5.77333 141.915 5.528 143.579 5.528C144.752 5.528 145.947 5.656 147.163 5.912C148.379 6.168 149.392 6.54133 150.203 7.032L148.539 10.584C147.707 10.0933 146.864 9.76267 146.011 9.592C145.179 9.4 144.368 9.304 143.579 9.304C142.47 9.304 141.659 9.45333 141.147 9.752C140.635 10.0507 140.379 10.4347 140.379 10.904C140.379 11.3307 140.56 11.6507 140.923 11.864C141.307 12.0773 141.808 12.248 142.427 12.376C143.046 12.504 143.718 12.6213 144.443 12.728C145.19 12.8133 145.936 12.952 146.683 13.144C147.43 13.336 148.102 13.6133 148.699 13.976C149.318 14.3173 149.819 14.7973 150.203 15.416C150.587 16.0133 150.779 16.8027 150.779 17.784C150.779 18.8507 150.459 19.8 149.819 20.632C149.179 21.4427 148.251 22.0827 147.035 22.552C145.84 23.0213 144.379 23.256 142.651 23.256ZM162.179 23.256C160.152 23.256 158.574 22.744 157.443 21.72C156.312 20.6747 155.747 19.128 155.747 17.08V1.976H160.739V17.016C160.739 17.7413 160.931 18.3067 161.315 18.712C161.699 19.096 162.222 19.288 162.883 19.288C163.672 19.288 164.344 19.0747 164.899 18.648L166.243 22.168C165.731 22.5307 165.112 22.808 164.387 23C163.683 23.1707 162.947 23.256 162.179 23.256ZM153.091 10.008V6.168H165.027V10.008H153.091ZM178.338 23.256C176.375 23.256 174.647 22.872 173.154 22.104C171.682 21.336 170.541 20.2907 169.73 18.968C168.919 17.624 168.514 16.0987 168.514 14.392C168.514 12.664 168.909 11.1387 169.698 9.816C170.509 8.472 171.607 7.42667 172.994 6.68C174.381 5.912 175.949 5.528 177.698 5.528C179.383 5.528 180.898 5.89067 182.242 6.616C183.607 7.32 184.685 8.344 185.474 9.688C186.263 11.0107 186.658 12.6 186.658 14.456C186.658 14.648 186.647 14.872 186.626 15.128C186.605 15.3627 186.583 15.5867 186.562 15.8H172.578V12.888H183.938L182.018 13.752C182.018 12.856 181.837 12.0773 181.474 11.416C181.111 10.7547 180.61 10.2427 179.97 9.88C179.33 9.496 178.583 9.304 177.73 9.304C176.877 9.304 176.119 9.496 175.458 9.88C174.818 10.2427 174.317 10.7653 173.954 11.448C173.591 12.1093 173.41 12.8987 173.41 13.816V14.584C173.41 15.5227 173.613 16.3547 174.018 17.08C174.445 17.784 175.031 18.328 175.778 18.712C176.546 19.0747 177.442 19.256 178.466 19.256C179.383 19.256 180.183 19.1173 180.866 18.84C181.57 18.5627 182.21 18.1467 182.786 17.592L185.442 20.472C184.653 21.368 183.661 22.0613 182.466 22.552C181.271 23.0213 179.895 23.256 178.338 23.256ZM191.262 23V5.784H196.03V10.648L195.358 9.24C195.87 8.024 196.691 7.10667 197.822 6.488C198.952 5.848 200.328 5.528 201.95 5.528V10.136C201.736 10.1147 201.544 10.104 201.374 10.104C201.203 10.0827 201.022 10.072 200.83 10.072C199.464 10.072 198.355 10.4667 197.502 11.256C196.67 12.024 196.254 13.2293 196.254 14.872V23H191.262Z" fill="white"/>
</svg>
